<svg width="512" height="512" xmlns="http://www.w3.org/2000/svg">

 <g>
  <title>background</title>
  <rect fill="none" id="canvas_background" height="514" width="514" y="-1" x="-1"/>
 </g>
 <g class="layer">
  <title>Layer 1</title>
  <rect id="svg_15" height="192.90323" width="425.1613" y="276.93751" x="42.77419" stroke-width="null" fill="#ffffff"/>
  <rect stroke="null" fill="#003f7f" stroke-width="null" stroke-linejoin="null" stroke-linecap="null" x="39.90253" y="54.83871" width="445.82021" height="230.63737" id="svg_16"/>
  <g id="svg_6"/>
  <g id="svg_10"/>
  <g stroke="null" id="svg_1">
   <path stroke="null" d="m484.7948,-0.03226l-457.58958,0c-15.04053,0 -27.23747,12.19694 -27.23747,27.23747l0,457.58958c0,15.04053 12.19694,27.23747 27.23747,27.23747l457.58958,0c15.04598,0 27.23747,-12.19694 27.23747,-27.23747l0,-457.58958c0,-15.04053 -12.19149,-27.23747 -27.23747,-27.23747zm-300.27682,422.67658c-14.03819,18.35261 -33.01182,26.36043 -55.72787,26.36043c-47.68192,-0.1035 -83.03617,-38.74803 -77.77389,-85.06263c3.52998,-31.21415 31.21959,-59.2524 63.79017,-64.64542c25.48338,-4.22726 47.7364,1.72141 65.89835,20.71138c6.4117,6.70587 6.31365,9.06463 -0.35409,15.30746c-4.2436,3.96578 -8.40548,8.01871 -12.7199,11.92457c-5.89964,5.37123 -7.56657,5.31131 -13.62963,-0.14708c-15.59073,-14.04364 -36.59082,-13.15025 -50.43836,2.14087c-12.69811,14.02185 -12.39305,36.02428 0.73541,49.81189c12.91601,13.58605 34.35735,14.69734 49.07648,2.53853c11.5269,-9.51133 11.5269,-9.51133 22.8359,-0.06537c2.23347,1.8576 4.44516,3.74788 6.67863,5.61092c6.96735,5.83427 7.26696,8.12222 1.6288,15.51447zm268.34905,12.86154c-0.01089,8.25295 -1.54164,9.70744 -9.87086,9.74012c-8.29653,0.01634 -16.59852,0.03268 -24.89505,-0.00545c-7.29964,-0.03813 -9.53312,-1.92297 -9.54946,-9.16813l0.13074,-68.48591c-0.59378,-26.9651 -22.72695,-39.06943 -46.43989,-25.69583c-7.45217,4.20547 -12.34402,9.10821 -11.8592,19.47479l0,73.44857c0,9.05374 -1.06226,10.42106 -10.13234,10.4374c-7.46852,0.00545 -14.94793,0.03813 -22.42734,-0.01089c-6.94556,-0.05447 -8.83039,-1.91752 -8.83039,-8.84673c-0.04358,-21.57753 -0.01089,-43.1714 -0.03268,-64.74893c-0.01089,-2.90351 0.03268,-5.82337 -0.25603,-8.71054c-1.6288,-16.4242 -10.02339,-24.8896 -25.5433,-25.93552c-13.93469,-0.92063 -28.97523,9.61483 -32.16746,22.67792c-0.47938,1.97199 -0.32685,4.11831 -0.32685,6.18835c-0.02724,22.83045 -0.01634,45.65546 -0.01634,68.48046c-0.01089,9.8872 -1.05137,10.89499 -11.18371,10.90044c-7.88253,0 -15.7705,0.03813 -23.65302,-0.01089c-7.13077,-0.04358 -9.16813,-2.04826 -9.18448,-9.34245c-0.05447,-20.7604 -0.02179,-41.49902 -0.02179,-62.25397c0,-20.34095 -0.01089,-40.68189 0.01089,-61.01739c0.00545,-9.53312 1.57433,-11.03118 11.32534,-11.06931c0.82257,0 1.65059,0 2.49495,0c11.98994,0 12.20784,-0.07082 16.00474,10.87865c1.65604,4.77745 2.386,6.47707 7.23427,2.179c25.4507,-22.53629 67.854,-22.96119 89.91635,2.59846c2.87083,3.31752 4.40702,1.11674 6.47162,-0.60467c19.35495,-16.2063 41.43909,-22.26936 66.17072,-16.70202c25.94642,5.81792 39.32002,23.67481 44.73483,48.59166c1.45993,6.71131 1.92841,13.52613 1.92841,20.39542c-0.03268,22.20399 0,44.40798 -0.03268,66.61742zm-37.04841,-261.47431c0,0 -2.88172,11.14013 -0.06537,15.874c3.7969,3.59535 4.17278,7.01093 0.58288,10.6662c-1.58522,1.62335 -1.48717,3.44826 -1.12763,5.20236c4.78835,22.17675 4.51053,44.87102 7.02182,67.27656c0.4358,3.86772 -1.34008,5.88329 -4.67395,6.94011c-1.83581,0.57199 -1.82491,0.57199 -5.51831,0.79533c-1.75409,-0.02179 -3.51908,-0.28872 -5.26773,-0.83347c-3.32842,-1.05681 -5.1152,-3.07783 -4.6794,-6.94011c2.52219,-22.40555 2.23347,-45.09981 7.02182,-67.27112c0.35953,-1.75409 0.45759,-3.58445 -1.12763,-5.20236c-3.57356,-3.66072 -3.21402,-7.0763 0.58288,-10.6662c1.91752,-3.19768 1.21479,-9.33701 0.55564,-12.97049c-5.38757,2.30974 -39.87566,17.06155 -55.559,23.52228c-3.61169,1.48717 -5.00625,2.78367 -4.1401,7.15801c2.85993,14.43586 5.06072,28.99157 7.49031,43.50914c1.51985,9.07553 -1.89573,13.5806 -11.01483,13.88022c-10.07242,0.3323 -19.80709,-2.15721 -29.43282,-4.5759c-41.13403,-10.31756 -82.07741,-9.97981 -123.05891,0.90428c-8.40004,2.22803 -17.01797,3.86227 -25.78844,3.7043c-10.5409,-0.20156 -14.0164,-4.64671 -12.24597,-15.1059c2.35332,-13.89656 4.33076,-27.86938 7.15801,-41.66789c0.99144,-4.86461 -0.54475,-6.35723 -4.58679,-8.05685c-35.71378,-14.99151 -71.34039,-30.16823 -106.9888,-45.29047c-1.85215,-0.78444 -3.65527,-1.67783 -6.47162,-2.97978c22.13317,-9.3588 43.22587,-18.2709 64.30768,-27.21024c47.28426,-20.04678 94.56851,-40.08812 141.84732,-60.19482c3.11052,-1.32919 5.79069,-2.22803 9.3479,-0.70273l207.52777,88.35292l-51.69673,21.88259z" id="svg_2" fill="#003f7f"/>
  </g>
  <g transform="matrix(0.9830604016254056,0,0,0.9830604016254056,-1142.5091587122452,35.6267325807412) " id="svg_14">
   <g transform="matrix(0.5691896330058386,0,0,0.5691896330058386,20.248097827386857,-1.1622785219326817) " id="svg_9">
    <g id="svg_11">
     <path stroke-width="0" stroke="#000000" fill="#ffffff" id="svg_13" d="m2719.78249,77.22756c0,-16.542 -13.458,-30 -30,-30l-116,0l0,-30.001c0,-27.57 -22.43,-50 -50,-50l-120,0c-27.57,0 -50,22.43 -50,50l0,30.001l-116.001,0c-16.542,0 -30,13.458 -30,30l0,100.004c0,19.026 7.64,36.294 20.001,48.924l0,151.079c0,16.542 13.458,30 30,30l412,0c16.542,0 30,-13.458 30,-30l0,-151.08c12.361,-12.63 20,-29.898 20,-48.924l0,-100.003zm-346,-60.001c0,-16.542 13.458,-30 30,-30l120,0c16.542,0 30,13.458 30,30l0,30.001l-20,0l0,-30.001c0,-5.523 -4.477,-10 -10,-10l-120,0c-5.523,0 -10,4.477 -10,10l0,30.001l-20,0l0,-30.001zm140,30.001l-100,0l0,-20.001l100,0l0,20.001zm156,340.007l-412.001,0c-5.514,0 -10,-4.486 -10,-10l0,-136.771c9.098,4.334 19.269,6.768 29.999,6.768l30.001,0l0,14.999c-5.523,0 -10,4.477 -10,10s4.477,10 10,10l0,10.001c0,19.299 15.701,35 35,35s35,-15.701 35,-35l0,-10.002c5.523,0 10,-4.477 10,-10s-4.477,-10 -10,-10l0,-14.999l172,0l0,14.999c-5.523,0 -10,4.477 -10,10s4.477,10 10,10l0,10.001c0,19.299 15.701,35 35,35s35,-15.701 35,-35l0,-10.001c5.523,0 10,-4.477 10,-10s-4.477,-10 -10,-10l0,-14.999l30.001,0c10.73,0 20.901,-2.434 29.999,-6.768l0,136.771c0.001,5.515 -4.485,10.001 -9.999,10.001zm-312,-125.005l-30,0l0,-55l30,0l0,55zm-30,20l30,0l0,10.001c0,8.271 -6.729,15 -15,15s-15,-6.729 -15,-15l0,-10.001zm271.999,-20l-30,0l0,-55l30,0l0,55zm-30,20l30,0l0,10.001c0,8.271 -6.729,15 -15,15s-15,-6.729 -15,-15l0,-10.001zm80.002,-54.998l-30.001,0l0,-20.001c5.523,0 10,-4.477 10,-10s-4.477,-10 -10,-10l-70.001,0c-5.523,0 -10,4.477 -10,10s4.477,10 10,10l0,20.001l-171.998,0l0,-20.001c5.523,0 10,-4.477 10,-10s-4.477,-10 -10,-10l-70.001,0c-5.523,0 -10,4.477 -10,10s4.477,10 10,10l0,20.001l-30.001,0c-27.57,0 -50,-22.43 -50,-50l0,-70.003l190.998,0c5.523,0 10,-4.477 10,-10s-4.477,-10 -10,-10l-190.998,0l0,-10.001c0,-5.514 4.486,-10 10,-10l452.002,0c5.514,0 10,4.486 10,10l0,10.001l-191.004,0c-5.523,0 -10,4.477 -10,10s4.477,10 10,10l191.004,0l0,70.003c-0.001,27.57 -22.43,50 -50,50z"/>
     <path stroke-width="0" stroke="#000000" fill="#ffffff" id="svg_12" d="m2463.78249,87.22856l-0.007,0c-5.523,0 -9.996,4.477 -9.996,10s4.48,10 10.003,10s10,-4.477 10,-10s-4.477,-10 -10,-10z"/>
    </g>
   </g>
  </g>
 </g>
</svg>